# xmcd
#
# Track frame offsets:
#	150
#	9978
#	21194
#	32255
#	45747
#	57260
#	69629
#	81464
#	93166
#	107336
#	121280
#	135551
#	145989
#	157821
#	172931
#	183227
#	196771
#	210679
#	223563
#	236524
#	249283
#	264526
#	278452
#	290909
#	301823
#
# Disc length: 4201 seconds
#
# Revision: 0
# Processed by: cddbd v1.5.1PL0 Copyright (c) Steve Scherf et al.
# Submitted via: audiograbber 1.83.01
#
DISCID=4d106719
DTITLE=Various Artist - I Love To Yodel! The Best Of Country Yodel Volume Two
DYEAR=2004
DGENRE=
TTITLE0=Sweet Little Lover
TTITLE1=Lovesick Blues
TTITLE2=Driftwood On The River
TTITLE3=Rocky Mountain Sweetheart
TTITLE4=Pictures Of My Mother
TTITLE5=Chime Bells
TTITLE6=Old Cockatoorali
TTITLE7=Prairieland Polka
TTITLE8=Twilight Yodelling Song
TTITLE9=My Sweet Mountain Yodeller
TTITLE10=My Clinch Mountain Home
TTITLE11=Pappy's Mountain Still
TTITLE12=My Pony My Guitar And Me
TTITLE13=Dreamyland Bay
TTITLE14=It Ain't Nobody's Business If I Do
TTITLE15=In The Shadow Of The Rockies
TTITLE16=The Showman's Song
TTITLE17=I Love To Yodel
TTITLE18=Red River Valley
TTITLE19='Neath The Blue Western Skies
TTITLE20=Idaho State Fair
TTITLE21=Now Is The Hour
TTITLE22=Song Of Queensland
TTITLE23=Cross Eyed Beau
TTITLE24=I Was Born In Old Wyoming
EXTD=
EXTT0=
EXTT1=
EXTT2=
EXTT3=
EXTT4=
EXTT5=
EXTT6=
EXTT7=
EXTT8=
EXTT9=
EXTT10=
EXTT11=
EXTT12=
EXTT13=
EXTT14=
EXTT15=
EXTT16=
EXTT17=
EXTT18=
EXTT19=
EXTT20=
EXTT21=
EXTT22=
EXTT23=
EXTT24=
PLAYORDER=
